# xmcd CD database file
#
# Track frame offsets:
#	150
#	14695
#	33095
#	44882
#	58812
#	77415
#	89970
#	106037
#	119395
#	137402
#
# Disc length: 1996 seconds
#
# Revision: 1
# Processed by: cddbd v1.4PL0 Copyright (c) Steve Scherf et al.
# Submitted via: CDex 1.40Release
#
DISCID=8407ca0a
DTITLE=Highwaymen - Highwayman 2
DYEAR=1900
DGENRE=Country
TTITLE0=Silver Stallion
TTITLE1=Born and Raised in Black and White
TTITLE2=Two Stories Wide
TTITLE3=We're All in Your Corner
TTITLE4=American Remains
TTITLE5=Anthem '84
TTITLE6=Angels Love Bad Men
TTITLE7=Songs That Make a Difference
TTITLE8=Living Legend
TTITLE9=Texas
EXTD=ID3G: 2
EXTT0=
EXTT1=
EXTT2=
EXTT3=
EXTT4=
EXTT5=
EXTT6=
EXTT7=
EXTT8=
EXTT9=
PLAYORDER=
